# xmcd
#
# Track frame offsets:
#	150
#	14447
#	29599
#	45877
#	61930
#	79257
#	93809
#	108105
#	123256
#	139534
#	155587
#	172914
#
# Disc length: 2499 seconds
#
# Revision: 1
# Processed by: cddbd v1.5.2PL0 Copyright (c) Steve Scherf et al.
# Submitted via: audiograbber 1.83.01
#
DISCID=8709c10c
DTITLE=Various Artist - CB20023 Hot Hits Vol.23
DYEAR=1900
DGENRE=Karaoke
TTITLE0=Clay Walker - Then What (Voclas)
TTITLE1=Wynonna Judd - Come Some Rainy Day (Vocals)
TTITLE2=Garth Brooks - Belleau Woods (Vocals)
TTITLE3=Collin Raye - Little Red Rodeo (Vocals)
TTITLE4=Kinleys, The - Just Between You And Me (Vocals)
TTITLE5=George Strait - Round  About Way (Vocals)
TTITLE6=Clay Walker - Then What
TTITLE7=Wynonna Judd - Come Some Rainy Day
TTITLE8=Garth Brooks - Belleau Woods
TTITLE9=Collin Raye - Little Red Rodeo
TTITLE10=Kinleys, The - Just Between You And Me
TTITLE11=George Strait - Round About Way
EXTD=
EXTT0=
EXTT1=
EXTT2=
EXTT3=
EXTT4=
EXTT5=
EXTT6=
EXTT7=
EXTT8=
EXTT9=
EXTT10=
EXTT11=
PLAYORDER=
